<?xml version="1.0" standalone="no"?><!DOCTYPE svg PUBLIC "-//W3C//DTD SVG 1.1//EN" "http://www.w3.org/Graphics/SVG/1.1/DTD/svg11.dtd"><svg class="icon" width="200px" height="200.00px" viewBox="0 0 1024 1024" version="1.1" xmlns="http://www.w3.org/2000/svg"><path fill="#ffffff" d="M835.726497 736.40184l0-46.602388c0-8.356318-6.933923-15.412015-15.503089-15.412015-8.630564 0-15.503089 6.903224-15.503089 15.412015l0 46.602388-46.587038 0c-8.357342 0-15.428388 6.934946-15.428388 15.503089 0 8.599865 6.904247 15.505136 15.428388 15.505136l46.587038 0 0 46.570665c0 8.358365 6.933923 15.443737 15.503089 15.443737 8.630564 0 15.503089-6.903224 15.503089-15.443737L835.726497 767.411087l46.587038 0c8.357342 0 15.427364-6.934946 15.427364-15.505136 0-8.628518-6.903224-15.503089-15.427364-15.503089L835.726497 736.402863zM820.223409 612.372012c-77.06519 0-139.53394 62.469773-139.53394 139.532917 0 77.066213 62.469773 139.534963 139.53394 139.534963s139.53394-62.469773 139.53394-139.534963C959.757349 674.841785 897.288598 612.372012 820.223409 612.372012zM820.223409 844.928578c-51.370994 0-93.022627-41.665958-93.022627-93.022627 0-51.385321 41.651632-93.02058 93.022627-93.02058s93.022627 41.636283 93.022627 93.02058C913.246035 803.26262 871.594403 844.928578 820.223409 844.928578zM871.867626 588.722382c-0.227174-0.060375-0.454348-0.149403-0.681522-0.211824-43.801599-43.119053-103.484909-69.675896-169.254845-69.675896-4.995781 0-9.977235 0.150426-14.912641 0.454348l0-0.454348c-12.763698-0.12075-23.074531-12.202926-23.074531-24.164353 0-11.960403 10.310833-22.164812 23.074531-22.285562l0-0.242524c2.51324 0.182149 5.056156 0.242524 7.615445 0.242524 63.014172 0 114.097618-51.962465 114.097618-116.097158 0-64.105017-51.083445-116.097158-114.097618-116.097158-12.30935 0-24.150026 1.998517-35.262108 5.661953-2.725064 1.453095-6.677073 2.937912-12.385075 5.057179-17.941628 6.631024-26.284643-8.236592-28.025287-20.045545-1.636267-11.022031 3.51301-22.778796 21.529339-27.533077 16.911158-6.192026 35.141358-9.568936 54.142108-9.568936 88.223321 0 159.731958 72.77242 159.731958 162.525584 0 51.29527-23.346731 97.019661-59.805084 126.816291 42.651402 14.595416 80.864726 39.031968 112.00905 70.675666l-0.060375 0.061398c5.980201 4.510734 9.841136 11.688203 9.841136 19.772322 0 13.68672-11.113105 24.800849-24.815175 24.800849C883.52513 598.413092 876.409059 594.627882 871.867626 588.722382zM656.509766 630.903064c-43.922349-53.323463-105.286951-91.719958-175.355797-106.466823-0.831948 0.091074-1.681292 0.12075-2.542916 0.12075-14.988366 0-27.131941-12.051477-27.131941-26.949792 0-14.716166 11.870352-26.677593 26.617218-26.949792 55.443753-23.527856 94.308923-78.275761 94.308923-142.077879 0-85.240383-69.419046-154.348344-155.038052-154.348344-34.429137 0-66.23861 11.158131-91.962481 30.068829-4.78498-3.027963-10.476609-4.76963-16.564257-4.76963-17.122983 0-31.008224 13.831007-31.008224 30.879288 0 7.116071 2.423189 13.657045 6.480598 18.895349-13.959943 23.164582-21.983687 50.296523-21.983687 79.275531 0 64.225767 39.395242 119.306246 95.444792 142.532227-0.045025 0.121773-0.091074 0.212848-0.1361 0.302899 11.900028 2.846838 20.727067 13.505595 20.727067 26.193569 0 14.383592-11.355629 26.13217-25.647123 26.920116-136.521327 28.857235-239.915162 147.620106-245.426689 291.514353 0.469698 1.847068 0.726547 3.783163 0.726547 5.78168 0 12.749372-10.416234 23.104207-23.255657 23.104207-11.340279 0-20.773116-8.054443-22.832008-18.7132l-1.39272-0.029676c0-0.090051 0-0.182149 0-0.272199 0-156.431795 101.545744-289.243637 242.579851-336.663646-50.494021-35.670407-83.454714-94.324272-83.454714-160.67033 0-32.279171 7.797593-62.711274 21.621437-89.600691-5.345752-8.206916-8.433066-17.986653-8.433066-28.502148 0-28.979008 23.603581-52.491515 52.718689-52.491515 8.585539 0 16.685008 2.044566 23.847128 5.677303 31.0379-20.181645 68.116377-31.915897 107.950617-31.915897 109.192911 0 197.703781 88.125083 197.703781 196.832947 0 66.345034-32.960693 124.998899-83.454714 160.67033 65.256236 21.954011 122.06201 62.166875 164.273391 114.551966l-0.318248 0.303922c4.224208 4.328585 6.828522 10.264784 6.828522 16.775059 0 13.294794-10.765181 24.043602-24.042579 24.043602C668.652318 644.924405 660.294976 639.170354 656.509766 630.903064z" /></svg>